<svg width="39" height="34" viewBox="0 0 39 34" fill="none" xmlns="http://www.w3.org/2000/svg">
<path d="M37.8386 31.9307C32.5595 29.922 18.7645 26.0431 4.8924 32C5.2611 31.5171 5.92213 31.0174 6.81907 30.5347V11.9821H7.58974V30.151C13.7544 27.3012 27.9954 25.403 37.8386 31.9307Z" fill="white"/>
<path d="M4.8924 32C18.7645 26.0431 32.5595 29.922 37.8386 31.9307C25.9317 24.0344 7.58974 28.4674 4.8924 32ZM6.81907 30.7532H7.58974V11.9821H6.81907V30.7532Z" stroke="white"/>
<path d="M2.8337 17.1256L1 15.1185L21.9348 1L31.0269 6.67509L21.9348 4.39121L2.8337 17.1256Z" fill="white" stroke="white"/>
<path d="M21.713 27.065H21.2264H21.1569V26.3699V25.5358V23.4506V22.269V21.852L21.0179 21.3654L20.9484 21.0179L20.8789 20.6704L20.6704 20.1143L20.6009 19.7668L20.1143 19.2802L19.4888 18.8632L18.3767 18.2376L17.3341 17.7511L16.639 17.4731L16.083 17.195L15.4574 16.9865L14.6928 16.5695L13.9282 16.1524L13.3027 15.8049L12.9551 15.7354H12.6076L11.9821 15.8744L12.3991 15.5269L12.7466 15.4574H13.0942L13.5112 15.5269L14.1368 15.7354L14.8318 16.0134L15.5964 16.361L16.5695 16.8475L17.1256 17.1255L17.5426 17.334L18.0986 17.5426L18.8632 17.7511L18.3767 17.4036L17.8206 17.1255L17.1256 16.8475L16.083 16.361L15.4574 16.0829L14.9013 15.8744L14.2063 15.5964L13.7197 15.3879L14.3453 15.4574L14.9013 15.5269L15.5964 15.6659L17.056 16.2914L18.3767 16.917L20.0448 17.7511L20.6009 18.1681L21.1569 18.8632V16.9865L21.0874 16.8475L20.7399 16.639L20.3229 16.2914L19.9058 16.0134L19.4888 15.5964L19.1412 15.1098L18.8632 14.5538L18.5852 13.7197L18.5157 13.0941V12.6771V12.121L18.5852 11.6345L18.7937 11.0784L19.1412 10.5919L19.6278 10.1053L20.0448 9.6188L20.5314 9.06274L20.9484 9.47978L21.3655 9.89682L21.713 10.3139L22.2691 10.8699L22.7556 11.7735L22.8946 12.1905L23.1031 12.8856L23.1726 13.5112L23.1031 14.4843L22.8946 15.1793L22.6166 15.9439L21.991 16.9865L21.852 15.6659L21.7825 14.9708L21.713 14.2062L21.574 13.5807L21.3655 12.8856L20.7399 11.3565L20.6704 11.7735L20.8789 12.2601L21.1569 12.9551L21.296 13.5112L21.435 14.5538L21.574 16.2219L21.713 18.6547L21.991 18.3071L22.2691 17.8206L22.6166 17.4036L22.8946 17.1255L23.3812 16.7085L24.0067 16.361L24.8408 15.8744L25.9529 15.2488L26.9955 14.7623L28.1771 14.2062L29.3587 13.7197L30.0538 13.5112L29.9843 13.5807L29.2197 13.9977L28.8027 14.2062L28.4551 14.4148L28.1076 14.6233L27.6906 14.8318L27.343 15.0403L26.926 15.2488L26.5785 15.4574L26.0919 15.7354L25.7444 15.9439L25.4664 16.1524L24.6323 16.639L23.7287 17.2645L22.9641 17.8206L22.5471 18.1681L22.1995 18.5852L21.991 18.9327L21.852 19.6973L22.0605 19.1412L22.4081 18.5852L23.2421 17.8206L24.4933 16.9865L25.2578 16.5L26.3004 15.8049L27.5516 15.1098L28.6637 14.4843L29.2197 14.1367L29.8453 13.7892L30.2623 13.5807L30.8184 13.4417H31.1659L31.6525 13.5112L30.7489 13.7892L30.4013 13.9282L29.8453 14.2757L29.3587 14.6928L29.0112 14.9708L28.1771 15.5964L27.4821 16.0829L26.509 16.7085L25.7444 17.1255L24.4933 17.8206L23.4507 18.3766L22.7556 18.7937L22.3386 19.1412L22.1995 19.3497L22.0605 19.5583V19.7668L21.991 20.3923L21.852 20.8789L21.713 21.4349L21.6435 22.13V22.8946V24.3542L21.713 27.065Z" fill="white" stroke="white"/>
</svg>
